<svg width="119" height="363" viewBox="0 0 119 363" fill="none" xmlns="http://www.w3.org/2000/svg">
<g clip-path="url(#clip0_158_7382)">
<g clip-path="url(#clip1_158_7382)">
<path d="M47.9173 105.336C43.5556 100.331 39.8726 91.5907 37.942 86.0783C35.1252 78.0368 31.0563 49.8995 38.8812 44.2021C50.7606 35.5498 84.8674 43.5748 96.7401 47.5729C111.22 53.6076 130.535 60.1642 140.657 89.794C143.202 83.5603 142.421 75.7266 145.801 78.9322C162.566 94.8359 175.389 114.496 185.167 138.051C198.173 169.395 198.262 207.453 183.164 237.966C171.888 260.753 159.807 284.503 148.05 307.019C139.72 322.266 134.481 334.215 124.081 349.036C122.447 351.385 121.031 353.909 119.582 356.382C118.061 360.487 115.142 367.22 112.281 370.539C103.458 380.775 97.0952 368.99 90.8304 363.566C67.9784 343.783 40.1221 328.486 13.8829 313.546C-1.8427 304.749 -17.7387 296.314 -33.3368 287.27C-5.57991 268.413 25.2631 275.694 4.70219 230.183C3.23159 226.934 -4.19076 202.736 -3.37968 200.383C-1.56137 199.89 0.265279 199.449 2.10491 199.048C36.2519 191.806 65.4584 200.797 96.3587 214.537C118.049 224.181 130.445 232.223 150.31 245.237L151.581 244.67C154.633 240.747 153.051 230.869 152.196 226.273C145.228 188.7 105.86 171.639 80.7691 147.04C65.6599 132.222 58.7745 123.383 47.9173 105.336Z" fill="#F03906"/>
<path d="M47.9173 105.336C43.5556 100.331 39.8726 91.5905 37.942 86.0781C35.1252 78.0366 31.0563 49.8993 38.8812 44.2019C50.7606 35.5496 84.8674 43.5746 96.7401 47.5727C96.4489 48.6639 96.008 53.2562 95.8052 54.6826C94.4484 64.178 89.6279 66.9617 82.6408 72.1934C82.9141 79.3976 84.8899 86.7146 79.2535 92.9438C74.6523 98.0282 67.5676 97.7413 61.2735 97.9978C58.644 100.186 56.035 102.399 53.4446 104.642L47.9173 105.336Z" fill="white"/>
</g>
</g>
<g clip-path="url(#clip2_158_7382)">
<path d="M125.392 241.554C121.98 246.726 118.823 252.446 116.032 257.927C112.587 264.69 111.146 272.247 106.224 278.245C105.808 278.752 104.861 280.248 104.325 280.553C103.727 280.714 101.812 282.292 101.001 282.628C100.862 282.685 99.7051 283.379 99.6335 283.38C96.8195 283.435 93.867 283.393 91.0516 283.445C89.8341 283.468 88.2194 283.133 86.9844 283.022C86.7211 282.999 86.147 282.385 85.8279 282.254C85.3571 282.063 84.6775 282.146 84.2704 281.994C84.1509 281.95 83.9651 281.669 83.524 281.494C82.3079 281.011 81.1428 280.62 79.8836 280.288C79.8094 280.268 79.3589 279.831 79.2731 279.742L79.1354 279.598C78.3534 279.47 76.8669 279.049 76.267 279.103C75.3702 278.975 73.6839 278.032 72.8136 278.395L72.7223 278.814C74.1858 284.397 77.1703 290.077 79.3911 295.474C88.596 317.844 103.243 337.669 119.231 355.638C121.62 358.325 123.84 360.451 126.387 363C126.339 362.875 126.163 362.366 126.181 362.241C126.353 361.082 126.453 360.079 126.454 358.901C126.462 352.991 126.406 347.083 126.526 341.172C126.559 340.431 126.782 339.148 126.288 338.652C123.555 338.547 120.57 336.675 118.794 334.573C118.002 333.572 117.584 332.462 117.022 331.312C113.368 323.841 114.673 311.269 121.535 305.973C122.626 305.131 125.37 303.78 126.778 303.46C126.309 301.572 126.454 293.569 126.454 291.262L126.442 257.293L126.477 248.379C126.484 246.682 126.557 244.762 126.35 243.091C126.173 241.664 125.909 242.786 125.392 241.554Z" fill="#F03906"/>
<path d="M134.965 314.627C136.939 313.339 139.986 311.948 139.758 309.158C139.54 306.495 136.975 304.892 134.744 303.96C132.626 303.076 130.402 303.212 128.147 303.341L127.411 303.475L126.843 303.641C125.437 303.959 122.696 305.307 121.607 306.146C114.753 311.426 113.45 323.961 117.099 331.409C117.661 332.556 118.078 333.663 118.869 334.661C120.643 336.756 123.624 338.623 126.354 338.728C126.848 339.222 126.625 340.501 126.592 341.24L127.364 341.272C127.36 340.518 127.204 339.864 127.431 339.169C127.755 338.884 127.637 338.972 128.179 338.953C128.896 338.968 129.317 338.957 130.031 338.894C136.13 338.447 138.044 332.371 132.745 329.308C135.427 328.243 138.043 327.74 139.351 324.795C140.067 323.182 140.259 320.444 139.579 318.799C138.648 316.549 137.128 315.532 134.965 314.627Z" fill="#4B3B3A"/>
<path d="M77.3683 167.886C77.116 167.869 76.6791 167.828 76.4428 167.833C75.9948 167.906 75.7335 167.944 75.2811 167.96L75.0607 168.118L75.1528 168.562C73.4014 168.54 71.5035 168.743 69.7532 168.67C67.9713 168.714 67.3907 169.038 65.7013 169.595C64.4369 169.783 62.3436 170.567 61.1002 170.999C54.29 173.365 45.8665 177.613 40.0257 181.835C38.3339 183.055 36.6961 184.348 35.1167 185.708C34.1801 186.512 32.8619 187.736 31.9182 188.456C32.3877 189.384 32.9953 188.997 33.0047 190.355C33.0117 191.491 32.6406 192.251 31.8363 193.076C30.7639 193.993 29.1377 195.456 27.864 196.054C27.8546 196.058 27.8441 196.063 27.8335 196.067C24.011 200.519 22.2175 203.464 20.3138 209.124C19.8725 210.436 19.6652 212.387 19.1618 213.541L19.7893 214.448C19.4065 216.923 19.3128 217.878 17.7113 219.843C17.6387 220.907 17.5778 222.005 17.4748 223.065C17.216 222.724 16.955 222.387 16.6904 222.052C16.6482 223.048 16.6119 224.711 16.4024 225.614L15.9996 225.844C15.9563 226.093 15.9446 226.109 15.9446 226.359C16.1214 226.408 16.3977 226.422 16.482 226.594C16.8356 227.314 16.7501 245.41 16.7185 247.538C16.7595 248.225 16.9198 252.173 16.8098 252.702C16.6892 254.444 16.8894 257.113 16.7126 258.575L16.7103 259.646C16.7185 259.998 16.7571 260.374 16.6845 260.71C16.9234 262.015 17.4572 261.561 17.5825 263.156C16.8098 265.926 17.0955 278.657 17.7113 280.31C18.553 281.075 19.8163 269.801 21.0034 269.968C22.4071 270.309 24.1738 270.184 25.6559 270.197C28.9212 270.215 32.1945 270.118 35.4562 270.221C37.0777 270.272 38.7285 270.736 40.3207 270.892C42.3695 271.093 44.3036 271.374 46.3266 271.756C47.3604 271.951 48.5288 271.918 49.5684 272.154C51.0892 272.443 52.5597 272.909 54.0828 273.219C58.4064 274.1 62.6925 275.094 66.9423 276.282C68.5204 276.722 70.1185 277.123 71.6416 277.739C72.0888 277.92 72.3534 278.527 72.7193 278.841L72.8108 278.422C73.6829 278.061 75.3728 279 76.2715 279.129C76.8726 279.075 78.3623 279.495 79.146 279.622L79.2839 279.765C79.3699 279.854 79.8214 280.29 79.8957 280.31C81.1576 280.641 82.3251 281.03 83.5438 281.512C83.9858 281.687 84.172 281.966 84.2918 282.011C84.6998 282.162 85.3808 282.079 85.8526 282.27C86.1723 282.4 86.7476 283.012 87.0115 283.035C88.2491 283.146 89.8672 283.48 91.0872 283.458C93.9086 283.405 96.8673 283.447 99.6873 283.392C99.759 283.391 100.918 282.7 101.058 282.643C101.87 282.308 103.789 280.734 104.389 280.574C104.926 280.27 105.875 278.779 106.292 278.273C111.224 272.293 112.668 264.76 116.12 258.018C118.918 252.554 122.081 246.851 125.5 241.695C125.889 241.011 126.519 240.188 126.99 239.534C127.081 239.36 127.235 239.164 127.352 238.999L127.328 238.698C127.639 238.64 127.589 238.63 127.871 238.45C128.432 237.575 128.326 211.889 128.325 208.988L128.321 208.022C128.345 207.39 128.329 206.913 128.301 206.284L128.31 197.242C128.31 195.291 128.385 192.758 128.111 190.885C127.856 190.627 127.844 190.707 127.383 190.644L126.831 190.437L126.755 190.39C126.635 189.96 126.605 189.881 126.401 189.483C125.43 188.67 124.509 187.482 123.526 186.703C119.828 183.774 116.457 180.058 112.815 177.144C112.353 176.68 112.241 176.569 111.884 175.998C111.846 176.021 111.808 176.044 111.77 176.067C110.858 176.298 110.693 176.845 109.564 177.417C108.647 177.112 106.861 176.619 106.504 175.731C105.902 174.234 105.421 174.745 104.528 173.901L104.537 173.075C103.825 173.081 103.395 173.08 102.689 173.004L101.673 172.884L101.525 172.657L101.34 172.774C101.66 172.599 101.662 172.665 101.811 172.392C101.58 172.214 99.8833 171.998 99.4049 171.904L99.4694 171.694L99.942 171.603L99.9619 171.516C98.2904 171.201 97.2881 170.467 96.0037 170.352C95.49 169.434 95.095 169.73 94.0167 168.869C92.7583 168.766 90.9147 168.597 89.6861 168.75C88.3048 168.823 86.6232 168.697 85.1987 168.667C83.3367 169.047 80.8994 168.807 78.9981 168.757C77.8885 168.727 78.0568 168.298 77.3683 167.886Z" fill="#F03906"/>
<path d="M128.301 206.245L128.28 206.351C128.151 207.02 128.296 207.456 128.061 207.913C127.763 208.105 127.772 208.085 127.417 208.14L126.275 208.131C125.48 208.133 124.319 208.1 123.562 208.216C122.83 208.248 121.959 208.302 121.244 208.472C120.325 208.564 119.197 208.827 118.269 209.03C111.409 210.535 104.838 213.817 100.338 219.318C98.9228 221.049 97.7065 222.943 96.7409 224.957C96.4286 225.608 96.2885 226.269 96.0524 226.792C95.7314 227.873 94.9658 229.529 94.9332 230.493C94.9788 231.586 94.8835 232.797 94.9468 233.827C95.0869 236.479 94.9478 239.968 94.9622 242.723C95.0623 243.566 95.2686 243.504 95.5826 244.198C95.8577 244.806 95.8223 245.993 95.7507 246.664C95.7682 247.164 95.7775 247.521 95.8555 248.022C95.8895 248.52 95.94 249.807 96.0876 250.206C96.2868 250.043 96.2798 250.036 96.4226 249.818C96.8084 250.211 96.6341 252.05 96.8733 252.837C97.0755 252.783 97.0896 252.777 97.2746 252.68C97.491 253.101 97.6743 255.181 97.6271 255.732L97.8038 256.094L98.1703 256.13C98.46 256.717 98.4128 257.757 98.6476 258.587L98.7689 258.567L98.8847 258.016C99.3979 258.457 99.1446 259.922 99.4128 260.607C100.083 262.318 100.74 263.353 101.256 265.143C100.967 265.003 100.982 265.008 100.663 264.969C99.6982 265.419 100.384 265.977 99.7754 266.363C98.8085 266.977 97.23 266.506 96.1612 266.88C93.4642 267.702 91.1898 268.765 88.8893 270.383C88.6112 270.578 87.8605 270.867 87.4902 271.062C87.096 270.418 86.723 269.374 86.438 268.659C85.2489 265.169 83.4688 262.247 81.7829 259.03C74.2604 244.678 59.7553 234.898 43.0553 242.5C34.7369 246.314 28.0846 252.996 24.324 261.314C23.8358 262.396 23.4085 263.504 23.0432 264.635C22.5327 266.214 21.9942 268.686 21.0002 269.961C22.4039 270.302 24.1706 270.178 25.6528 270.19C28.9181 270.208 32.1916 270.111 35.4534 270.214C37.075 270.265 38.7258 270.729 40.318 270.886C42.3669 271.086 44.301 271.367 46.3241 271.75C47.3579 271.945 48.5264 271.912 49.566 272.148C51.0869 272.437 52.5574 272.904 54.0806 273.214C58.4042 274.096 62.6905 275.089 66.9404 276.278C68.5186 276.719 70.1167 277.12 71.6399 277.736C72.0871 277.917 72.3517 278.525 72.7176 278.838L72.8092 278.42C73.6813 278.058 75.3712 278.998 76.2699 279.126C76.8711 279.073 78.3608 279.493 79.1445 279.62L79.2824 279.763C79.3685 279.852 79.8199 280.288 79.8943 280.308C81.1561 280.639 82.3238 281.029 83.5424 281.511C83.9845 281.686 84.1707 281.966 84.2904 282.01C84.6984 282.162 85.3795 282.079 85.8513 282.269C86.1711 282.4 86.7464 283.012 87.0103 283.035C88.2479 283.146 89.866 283.48 91.0861 283.457C93.9076 283.405 96.8664 283.447 99.6864 283.392C99.7582 283.391 100.918 282.699 101.057 282.642C101.869 282.307 103.788 280.733 104.388 280.573C104.925 280.268 105.874 278.777 106.291 278.27C111.224 272.288 112.668 264.75 116.12 258.005C118.917 252.538 122.081 246.832 125.5 241.674C125.889 240.989 126.519 240.166 126.99 239.512C127.081 239.338 127.235 239.141 127.352 238.977L127.328 238.675C127.639 238.617 127.589 238.607 127.871 238.427C128.432 237.552 128.326 211.853 128.325 208.95L128.321 207.984C128.345 207.351 128.329 206.875 128.301 206.245Z" fill="white"/>
<path d="M101.285 264.596C100.995 264.456 101.011 264.461 100.692 264.422C99.725 264.871 100.412 265.43 99.8023 265.817C98.834 266.43 97.2534 265.959 96.1831 266.333C93.4824 267.156 91.2049 268.219 88.9012 269.837C88.6227 270.032 87.871 270.322 87.5002 270.517C88.9742 273.325 87.5152 276.319 91.893 277.852C96.9696 279.631 103.133 276.892 103.761 271.256C103.908 269.945 103.9 268.188 103.078 267.088C102.499 266.281 101.757 265.623 101.345 264.729L101.285 264.596Z" fill="#4B3B3A"/>
<path d="M113.798 220.361C113.659 220.053 113.595 219.777 113.228 219.663C111.828 219.228 110.054 219.416 108.889 220.281C108.433 220.526 107.798 220.856 107.381 221.142C105.987 222.104 105.037 223.574 104.741 225.229C104.009 229.148 106.425 232.83 110.415 233.34C116.848 234.162 120.492 227.129 116.657 222.171C116.039 221.373 114.8 220.47 113.798 220.361Z" fill="#4B3B3A"/>
<path d="M55.0336 246.644C51.2887 246.211 47.9042 248.898 47.4872 252.636C47.069 256.375 49.7772 259.738 53.5257 260.139C57.2506 260.536 60.5986 257.855 61.0133 254.14C61.4279 250.425 58.755 247.074 55.0336 246.644Z" fill="#4B3B3A"/>
<path d="M31.5893 188.394C31.3015 188.456 30.9127 188.629 30.6852 188.43C26.479 184.741 21.0436 184.055 15.6431 183.733C11.8954 183.509 4.56009 182.365 1.79193 185.581C-0.966933 188.786 0.0358703 195.94 1.00966 199.715C2.72974 204.982 5.92501 210.488 9.63097 214.579C10.9704 216.016 13.3451 218.093 14.8365 219.389C15.0953 219.614 15.3576 219.837 15.6211 220.057C16.6065 220.458 16.4858 220.985 16.4927 221.919C16.755 222.253 17.0139 222.59 17.2704 222.929C17.3725 221.873 17.4329 220.776 17.5048 219.714C19.0926 217.754 19.1854 216.801 19.565 214.331L18.9429 213.426C19.442 212.274 19.6474 210.328 20.0849 209.019C21.9722 203.371 23.7503 200.432 27.5398 195.989C27.5503 195.985 27.5607 195.981 27.57 195.977C28.8328 195.379 30.4449 193.92 31.5081 193.005C32.3054 192.182 32.6734 191.423 32.6664 190.29C32.6571 188.934 32.0547 189.321 31.5893 188.394Z" fill="#4B3B3A"/>
<path d="M27.6113 196.066C26.4044 194.494 22.6809 193.067 20.8004 192.315C19.3168 191.722 16.7419 191.457 15.0622 191.113C12.9845 191.277 10.9021 191.368 8.81855 191.385C8.31897 191.654 8.24427 191.746 7.8474 192.161C7.24043 198.584 10.7072 204.56 14.6245 209.372C16.2586 211.38 17.1901 211.994 18.9655 213.617C19.4674 212.458 19.674 210.499 20.1141 209.181C22.012 203.496 23.8002 200.538 27.6113 196.066Z" fill="white"/>
<path d="M98.1686 143.152C96.3802 143.037 95.053 142.887 93.2713 143.132C90.4173 144.054 88.8028 146.686 86.9095 148.875C84.3711 151.809 82.0792 154.909 80.2867 158.364C79.4889 159.919 78.1012 163.539 78.0707 165.22C77.9745 165.971 78.0585 167.226 77.6486 167.573L77.3891 167.625C78.0713 168.036 77.9045 168.465 79.0039 168.495C80.8878 168.545 83.3026 168.785 85.1476 168.405C86.559 168.435 88.2252 168.56 89.5938 168.488C90.8111 168.335 92.6378 168.504 93.8846 168.606C94.9531 169.467 95.3445 169.171 95.8534 170.088C97.126 170.203 98.1191 170.936 99.7753 171.25L99.7556 171.338L99.2873 171.429L99.2234 171.638C99.6974 171.732 101.379 171.948 101.608 172.126C101.459 172.398 101.458 172.333 101.14 172.507L101.324 172.39L101.471 172.617L102.478 172.737C103.177 172.813 103.603 172.814 104.308 172.808L104.299 173.633C105.184 174.476 105.661 173.965 106.257 175.46C106.611 176.347 108.381 176.84 109.29 177.145C110.408 176.574 110.571 176.027 111.475 175.796C111.513 175.773 111.551 175.75 111.588 175.727L111.599 175.623C111.224 174.452 111.525 168.599 111.611 167.314C111.577 166.725 111.528 166.137 111.465 165.551C110.591 157.879 107.082 150.753 101.541 145.397C100.854 144.745 99.0625 143.369 98.1686 143.152Z" fill="#4B3B3A"/>
<path d="M104.595 172.874C104.601 171.227 104.654 169.069 104.528 167.46C104.103 163.156 102.487 158.49 100.224 154.818C97.1983 149.909 95.6275 150.189 92.1157 154.088C88.5107 158.091 86.3729 162.404 85.2677 167.582L85.1669 168.473C86.5979 168.503 88.2874 168.628 89.6751 168.556C90.9094 168.403 92.7616 168.572 94.0258 168.674C95.1091 169.535 95.506 169.238 96.022 170.155C97.3124 170.27 98.3193 171.003 99.9987 171.317L99.9787 171.405L99.5038 171.495L99.439 171.705C99.9196 171.799 101.625 172.015 101.856 172.192C101.706 172.465 101.704 172.399 101.383 172.574L101.569 172.457L101.718 172.683L102.739 172.804C103.447 172.88 103.88 172.88 104.595 172.874Z" fill="white"/>
</g>
<defs>
<clipPath id="clip0_158_7382"><rect width="112" height="239" fill="white" transform="translate(15)"/></clipPath>
<clipPath id="clip1_158_7382"><rect width="101.408" height="225" fill="white" transform="translate(2.02246 108.612) rotate(-60.6843)"/></clipPath>
<clipPath id="clip2_158_7382"><rect width="140" height="220" fill="white" transform="translate(0 143)"/></clipPath>
</defs>
</svg>
